Coordinates
version=1
nRows=6
nColumns=38
inDegrees=yes

Units are S.I. units (second, meters, Newtons, ...)
Angles are in degrees.

endheader
time	pelvis_tilt	pelvis_list	pelvis_rotation	pelvis_tx	pelvis_ty	pelvis_tz	hip_flexion_r	hip_adduction_r	hip_rotation_r	knee_angle_r	ankle_angle_r	subtalar_angle_r	mtp_angle_r	hip_flexion_l	hip_adduction_l	hip_rotation_l	knee_angle_l	ankle_angle_l	subtalar_angle_l	mtp_angle_l	lumbar_extension	lumbar_bending	lumbar_rotation	arm_flex_r	arm_add_r	arm_rot_r	elbow_flex_r	pro_sup_r	wrist_flex_r	wrist_dev_r	arm_flex_l	arm_add_l	arm_rot_l	elbow_flex_l	pro_sup_l	wrist_flex_l	wrist_dev_l
      0.00000000	      3.98950071	      4.24392297	     -5.35012048	     -0.03493699	      0.88047129	      2.57885129	     14.25628719	     -8.00423810	     -1.45117258	    -64.57237265	      4.58960914	      0.00000000	      0.00000000	      3.13859133	      4.36783649	     -7.01940812	    -11.45404506	      2.05968720	      0.00000000	      0.00000000	     -8.70418918	     -5.91750435	      1.25638524	     14.10885325	     -7.51698649	     15.04429947	     31.59942072	     92.41037316	      0.00000000	      0.00000000	     -5.83685211	    -10.45185274	      5.74511787	     15.34265781	     92.32448241	      0.00000000	      0.00000000
      0.01000000	      3.85179617	      3.98056960	     -5.58272118	     -0.03680155	      0.88141444	      2.57869104	     15.55059893	     -7.42092508	     -1.34140811	    -64.51635125	      4.62175349	      0.00000000	      0.00000000	      2.50364197	      4.16709000	     -7.29073100	    -10.94836278	      2.35781595	      0.00000000	      0.00000000	     -8.81035365	     -5.52646170	      1.25756388	     13.91057523	     -7.43561443	     14.46548523	     29.29947275	     92.69281377	      0.00000000	      0.00000000	     -4.36292026	    -10.76345253	      6.15371019	     15.50779188	     92.70639924	      0.00000000	      0.00000000
      0.02000000	      3.72847499	      3.66940742	     -5.79686130	     -0.03792226	      0.88202048	      2.57839504	     16.77463348	     -6.81918844	     -1.33998600	    -64.28753737	      4.74878658	      0.00000000	      0.00000000	      1.82492016	      3.94372960	     -7.54274991	    -10.45929383	      2.66718887	      0.00000000	      0.00000000	     -8.90235821	     -5.09060232	      1.26511682	     13.69820437	     -7.39296083	     13.80636884	     26.89565565	     93.09080202	      0.00000000	      0.00000000	     -2.90653814	    -11.05777651	      6.63366242	     15.63118086	     93.19462114	      0.00000000	      0.00000000
      0.03000000	      3.62390059	      3.31483839	     -5.97187127	     -0.03853442	      0.88242710	      2.57806677	     17.89515469	     -6.22401591	     -1.48140874	    -63.83729923	      4.99171087	      0.00000000	      0.00000000	      1.11654210	      3.69093582	     -7.75715990	    -10.00324177	      2.98803993	      0.00000000	      0.00000000	     -8.98264896	     -4.60496983	      1.27152822	     13.45993194	     -7.39456822	     13.04316661	     24.42661325	     93.64334843	      0.00000000	      0.00000000	     -1.47305004	    -11.33148452	      7.18221502	     15.71332215	     93.79915485	      0.00000000	      0.00000000
      0.04000000	      3.53645259	      2.93547423	     -6.08559021	     -0.03903145	      0.88276421	      2.57776040	     18.89488326	     -5.66896770	     -1.78877013	    -63.13118959	      5.35472864	      0.00000000	      0.00000000	      0.40428886	      3.40789752	     -7.91433764	     -9.59614721	      3.32100933	      0.00000000	      0.00000000	     -9.05988040	     -4.07348055	      1.26429421	     13.18075249	     -7.44148015	     12.15045151	     21.95493777	     94.38184789	      0.00000000	      0.00000000	     -0.05358195	    -11.58605941	      7.77893406	     15.76797175	     94.50914481	      0.00000000	      0.00000000
      0.05000000	      3.45460034	      2.56138186	     -6.12508917	     -0.03961819	      0.88300866	      2.57742654	     19.78525150	     -5.18196293	     -2.25671290	    -62.16032682	      5.80890366	      0.00000000	      0.00000000	     -0.28350698	      3.11134239	     -8.00258563	     -9.24766727	      3.66738566	      0.00000000	      0.00000000	     -9.14322455	     -3.51615883	      1.23000427	     12.85113827	     -7.53533033	     11.10373846	     19.55031030	     95.31110184	      0.00000000	      0.00000000	      1.37107928	    -11.82752461	      8.38453654	     15.82267009	     95.28414253	      0.00000000	      0.00000000
